HIERARCHY
ROOT SpineBase
{
  OFFSET 0.000000 0.000000 0.000000
  CHANNELS 6 Xposition Yposition Zposition Zrotation Xrotation Yrotation
  JOINT SpineMid
  {
    OFFSET 0.000000 25.505627 0.000000
    CHANNELS 3 Zrotation Xrotation Yrotation
    JOINT SpineShoulder
    {
      OFFSET -0.036280 18.834476 -0.696682
      CHANNELS 3 Zrotation Xrotation Yrotation
      JOINT Neck
      {
        OFFSET -0.035683 6.180375 -0.541074
        CHANNELS 3 Zrotation Xrotation Yrotation
        JOINT Head
        {
          OFFSET 6.659931 10.558214 -2.638788
          CHANNELS 3 Zrotation Xrotation Yrotation
          End Site
          {
            OFFSET 0 0 0
          }
        }
      }
      JOINT ShoulderLeft
      {
        OFFSET -15.919854 1.837296 -9.007020
        CHANNELS 3 Zrotation Xrotation Yrotation
        JOINT ElbowLeft
        {
          OFFSET -16.929358 -16.446110 0.270038
          CHANNELS 3 Zrotation Xrotation Yrotation
          JOINT WristLeft
          {
            OFFSET -2.869061 -17.047834 -18.095774
            CHANNELS 3 Zrotation Xrotation Yrotation
            JOINT HandLeft
            {
              OFFSET 1.713980 -0.893175 -4.569243
              CHANNELS 3 Zrotation Xrotation Yrotation
              JOINT HandTipLeft
              {
                OFFSET 0.818720 -6.070290 -1.932151
                CHANNELS 3 Zrotation Xrotation Yrotation
                End Site
                {
                  OFFSET 0 0 0
                }
              }
              JOINT ThumbLeft
              {
                OFFSET -3.904994 -4.379350 5.327071
                CHANNELS 3 Zrotation Xrotation Yrotation
                End Site
                {
                  OFFSET 0 0 0
                }
              }
            }
          }
        }
      }
      JOINT ShoulderRight
      {
        OFFSET 9.090669 -9.080436 3.588653
        CHANNELS 3 Zrotation Xrotation Yrotation
        JOINT ElbowRight
        {
          OFFSET -0.850010 -22.297518 3.877581
          CHANNELS 3 Zrotation Xrotation Yrotation
          JOINT WristRight
          {
            OFFSET 9.781252 -17.219375 -7.875441
            CHANNELS 3 Zrotation Xrotation Yrotation
            JOINT HandRight
            {
              OFFSET 0.538362 -3.343425 -5.289654
              CHANNELS 3 Zrotation Xrotation Yrotation
              JOINT HandTipRight
              {
                OFFSET -1.567394 -5.158851 -1.568267
                CHANNELS 3 Zrotation Xrotation Yrotation
                End Site
                {
                  OFFSET 0 0 0
                }
              }
              JOINT ThumbRight
              {
                OFFSET 3.015664 2.750752 -2.355042
                CHANNELS 3 Zrotation Xrotation Yrotation
                End Site
                {
                  OFFSET 0 0 0
                }
              }
            }
          }
        }
      }
    }
  }
  JOINT HipLeft
  {
    OFFSET -6.326815 0.237570 -6.910019
    CHANNELS 3 Zrotation Xrotation Yrotation
    JOINT KneeLeft
    {
      OFFSET -8.351840 -8.500711 -28.980553
      CHANNELS 3 Zrotation Xrotation Yrotation
      JOINT AnkleLeft
      {
        OFFSET -14.335257 -31.620147 8.671381
        CHANNELS 3 Zrotation Xrotation Yrotation
        JOINT FootLeft
        {
          OFFSET -0.426937 -7.523499 -8.053251
          CHANNELS 3 Zrotation Xrotation Yrotation
          End Site
          {
            OFFSET 0 0 0
          }
        }
      }
    }
  }
  JOINT HipRight
  {
    OFFSET 5.723310 -0.185967 -0.123351
    CHANNELS 3 Zrotation Xrotation Yrotation
    JOINT KneeRight
    {
      OFFSET 4.940995 -16.268234 -25.710493
      CHANNELS 3 Zrotation Xrotation Yrotation
      JOINT AnkleRight
      {
        OFFSET -20.541768 -28.229790 11.795242
        CHANNELS 3 Zrotation Xrotation Yrotation
        JOINT FootRight
        {
          OFFSET -2.192665 -7.113402 -4.041265
          CHANNELS 3 Zrotation Xrotation Yrotation
          End Site
          {
            OFFSET 0 0 0
          }
        }
      }
    }
  }
}
MOTION
Frames: 12
Frame Time: 0.033333
34.485181 54.411710 393.667771 -0.000000 0.000000 -29.388346 0.000000 0.000000 29.388346 -0.000000 0.000000 0.000000 -0.000000 0.000000 0.000000 0.000000 0.000000 0.000000 -0.000000 0.000000 0.000000 -0.000000 0.000000 0.000000 -0.000000 0.000000 0.000000 -0.000000 0.000000 0.000000 0.000000 0.000000 0.000000 0.000000 0.000000 0.000000 -0.000000 0.000000 0.000000 -0.000000 0.000000 0.000000 -0.000000 0.000000 0.000000 -0.000000 0.000000 0.000000 0.000000 0.000000 0.000000 0.000000 0.000000 0.000000 0.000000 0.000000 29.388346 -0.000000 0.000000 0.000000 -0.000000 0.000000 0.000000 0.000000 0.000000 0.000000 0.000000 0.000000 29.388346 -0.000000 0.000000 0.000000 -0.000000 0.000000 0.000000 0.000000 0.000000 0.000000
34.537719 54.363800 393.678452 0.167534 -0.096674 -29.204900 -0.193408 0.002639 29.205046 -0.000000 0.000000 0.000000 -0.000000 0.000000 0.000000 0.000000 0.000000 0.000000 -0.987523 -1.273086 1.271794 1.015776 1.250661 -1.293853 -1.617709 -3.596106 1.627861 -0.150726 2.643576 -1.171103 0.000000 0.000000 0.000000 0.000000 0.000000 0.000000 -0.000000 0.000000 0.000000 -1.198091 1.219291 1.254652 2.110345 -3.653577 -3.201666 1.613311 7.375117 -0.544264 0.000000 0.000000 0.000000 0.000000 0.000000 0.000000 -0.193408 0.002639 29.205046 -0.000000 0.000000 0.000000 -0.000000 0.000000 0.000000 0.000000 0.000000 0.000000 -0.193408 0.002639 29.205046 -0.000000 0.000000 0.000000 0.901418 -0.910643 -0.225820 0.000000 0.000000 0.000000
34.583058 54.325259 393.690035 0.302538 -0.165862 -29.053795 -0.345015 -0.001932 29.054227 -0.000000 0.000000 0.000000 -0.787841 0.258891 -0.357082 0.000000 0.000000 0.000000 -1.821512 -2.376141 2.339215 1.918496 2.298564 -2.415486 -2.596929 -5.877503 2.687918 -0.580611 4.135614 -1.826878 0.000000 0.000000 0.000000 0.000000 0.000000 0.000000 -0.000000 0.000000 0.000000 -2.121073 2.113374 2.214272 3.918335 -6.982042 -6.246570 2.434571 13.672178 -0.684345 0.000000 0.000000 0.000000 0.000000 0.000000 0.000000 -0.345015 -0.001932 29.054227 -0.000000 0.000000 0.000000 -0.000000 0.000000 0.000000 0.000000 0.000000 0.000000 0.314062 -0.170857 28.127518 -1.422102 0.697839 0.374658 2.555204 -1.901091 0.187645 0.000000 0.000000 0.000000
34.621198 54.296086 393.702519 0.405288 -0.207751 -28.935585 -0.455208 -0.014276 28.936263 -0.000000 0.000000 0.000000 -1.053948 0.311177 -0.454510 0.000000 0.000000 0.000000 -2.495783 -3.276288 3.187295 2.677991 3.129170 -3.331843 -3.229004 -7.379769 3.462569 -1.026948 5.024030 -2.264722 0.000000 0.000000 0.000000 0.000000 0.000000 0.000000 -0.000000 0.000000 0.000000 -2.775811 2.717902 2.887615 5.465656 -9.630179 -9.025537 2.554178 18.540044 -0.369000 0.000000 0.000000 0.000000 0.000000 0.000000 0.000000 -0.455208 -0.014276 28.936263 -0.000000 0.000000 0.000000 -0.000000 0.000000 0.000000 0.000000 0.000000 0.000000 0.420227 -0.250718 27.708234 -1.899356 0.933662 0.492313 3.411579 -2.577831 0.289824 0.000000 0.000000 0.000000
34.652140 54.276282 393.715905 0.475990 -0.222465 -28.850706 -0.524254 -0.034831 28.851471 -0.000000 0.000000 0.000000 -1.235598 0.311290 -0.498765 0.000000 0.000000 0.000000 -3.006637 -3.947007 3.805199 3.709793 4.431878 -4.579733 -3.957624 -9.128589 4.575265 -1.346600 5.572976 -2.645947 0.000000 0.000000 0.000000 0.000000 0.000000 0.000000 -0.000000 0.000000 0.000000 -3.169037 3.058257 3.282601 6.774979 -11.123054 -11.309863 2.260544 21.541869 0.260810 0.000000 0.000000 0.000000 0.000000 0.000000 0.000000 -0.524254 -0.034831 28.851471 -0.000000 0.000000 0.000000 -0.000000 0.000000 0.000000 0.000000 0.000000 0.000000 0.492456 -0.324457 27.430380 -2.219109 1.098858 0.559149 3.976881 -3.069883 0.389660 0.000000 0.000000 0.000000
34.675882 54.265846 393.730192 0.514780 -0.210071 -28.799476 -0.552307 -0.063911 28.800112 -0.000000 0.000000 0.000000 -1.333003 0.258867 -0.490124 0.000000 0.000000 0.000000 -3.351971 -4.368781 4.185772 4.302348 4.967118 -5.237138 -4.353339 -9.926973 5.319278 -1.461559 5.912065 -3.067032 0.000000 0.000000 0.000000 0.000000 0.000000 0.000000 -0.000000 0.000000 0.000000 -3.305971 3.149795 3.405010 7.830239 -10.991482 -12.799972 2.015856 22.267040 0.888571 0.000000 0.000000 0.000000 0.000000 0.000000 0.000000 -0.552307 -0.063911 28.800112 -0.000000 0.000000 0.000000 -0.000000 0.000000 0.000000 0.000000 0.000000 0.000000 0.530880 -0.390990 27.294179 -2.380545 1.195626 0.573238 4.245893 -3.376452 0.483000 0.000000 0.000000 0.000000
34.707341 54.257898 393.753912 0.532401 -0.172212 -28.783393 -0.549540 -0.105420 28.783688 -0.000000 0.000000 0.000000 -1.305196 0.181159 -0.435468 0.000000 0.000000 0.000000 -3.655283 -4.205102 4.000820 5.250718 4.363387 -5.789282 -4.304829 -6.898774 7.716275 -1.311798 4.856538 -4.802331 0.000000 0.000000 0.000000 0.000000 0.000000 0.000000 -0.000000 0.000000 0.000000 -2.184294 2.086557 2.229578 7.283196 -1.237528 -9.766857 5.426917 13.344880 -1.238976 0.000000 0.000000 0.000000 0.000000 0.000000 0.000000 -0.549540 -0.105420 28.783688 -0.438315 0.708441 -0.438655 0.443760 -0.705043 0.444095 0.000000 0.000000 0.000000 0.520907 -0.440462 27.301856 -2.411112 1.206338 0.524990 4.235251 -3.425993 0.555620 0.000000 0.000000 0.000000
34.733850 54.262215 393.773836 0.528475 -0.091516 -28.831002 -0.507100 -0.174673 28.830651 -0.000000 0.000000 0.000000 -1.182448 -0.028749 -0.275885 0.000000 0.000000 0.000000 -3.753724 -4.181153 3.969277 5.481747 4.120466 -5.899529 -3.762301 -4.451309 7.702471 -1.615346 3.087408 -4.817310 0.000000 0.000000 0.000000 0.000000 0.000000 0.000000 -0.802509 0.717432 -0.162018 -1.164801 1.096720 2.114303 7.416188 0.881827 -9.581428 5.682189 9.976697 -0.500649 0.000000 0.000000 0.000000 0.000000 0.000000 0.000000 -0.507100 -0.174673 28.830651 -0.544203 0.699116 -0.462650 0.549870 -0.694667 0.469304 0.000000 0.000000 0.000000 0.643972 -0.516672 27.229751 -2.627815 1.281918 0.562062 4.106963 -3.608540 0.850836 0.000000 0.000000 0.000000
34.720365 54.286257 393.784520 0.451092 0.000075 -28.870066 -0.394995 -0.217862 28.869315 -0.000000 0.000000 0.000000 -1.020550 -0.267722 -0.088034 0.000000 0.000000 0.000000 -3.317240 -3.643830 3.485317 4.676858 4.510849 -5.085525 -4.101667 -7.969583 6.393796 -0.261972 5.239948 -4.080909 0.000000 0.000000 0.000000 0.000000 0.000000 0.000000 -1.007434 1.108162 -0.207982 -1.101964 0.873399 2.319861 6.900714 -2.496643 -9.592899 3.274528 9.744054 1.441562 0.000000 0.000000 0.000000 0.000000 0.000000 0.000000 -0.394995 -0.217862 28.869315 -0.542529 0.671884 -0.449964 0.547826 -0.667572 0.456337 0.000000 0.000000 0.000000 0.179042 -0.565642 28.162439 -1.394856 0.886682 0.056831 2.692764 -3.141169 0.687582 0.000000 0.000000 0.000000
34.663033 54.321991 393.774176 0.304793 0.115153 -28.927979 -0.211065 -0.248216 28.927215 -0.000000 0.000000 0.000000 -0.913042 -0.449380 0.051374 0.000000 0.000000 0.000000 -2.858186 -3.275903 3.160911 4.926342 5.290289 -5.665417 -3.891680 -5.071517 10.110836 -2.792668 -1.318463 -7.099538 0.000000 0.000000 0.000000 0.000000 0.000000 0.000000 -1.112229 1.382230 -0.233105 -2.063173 1.451379 3.340054 7.150326 -11.731366 -12.052691 -2.547518 13.446052 6.509634 0.000000 0.000000 0.000000 0.000000 0.000000 0.000000 -0.211065 -0.248216 28.927215 -0.000000 0.000000 0.000000 -0.000000 0.000000 0.000000 0.000000 0.000000 0.000000 0.374112 -0.604699 28.208689 -1.338210 0.917576 0.081724 2.205494 -3.091753 0.883110 0.000000 0.000000 0.000000
34.648997 54.339527 393.791268 0.249930 0.151750 -28.940672 -0.145288 -0.253740 28.940019 -0.000000 0.000000 0.000000 -0.804113 -0.551691 0.142353 0.000000 0.000000 0.000000 -2.455416 -2.958865 2.877420 3.792684 4.844769 -4.551890 -4.384098 -9.567160 7.305148 -1.707573 2.546502 -4.870753 0.000000 0.000000 0.000000 0.000000 0.000000 0.000000 -1.160346 1.577191 -0.246444 -1.068664 0.658749 2.556531 5.474794 -6.907692 -8.604970 2.148373 11.249509 1.871735 0.000000 0.000000 0.000000 0.000000 0.000000 0.000000 -0.145288 -0.253740 28.940019 -0.000000 0.000000 0.000000 -0.000000 0.000000 0.000000 0.000000 0.000000 0.000000 0.598194 -0.468564 27.908076 -1.698829 0.940709 0.275945 1.971830 -2.998693 1.162437 0.000000 0.000000 0.000000
34.623441 54.356207 393.787106 0.181463 0.184290 -29.014241 -0.069305 -0.249176 29.013798 -0.000000 0.000000 0.000000 -0.708074 -0.603392 0.198877 0.000000 0.000000 0.000000 -2.091478 -2.680502 2.625672 2.452448 4.633613 -3.225582 -3.878837 -11.239592 3.391868 -2.031727 3.005862 -1.930524 0.000000 0.000000 0.000000 0.000000 0.000000 0.000000 -1.121842 1.628274 -0.241737 -1.134901 1.055711 2.821288 4.002735 -11.792870 -7.923291 0.487541 13.380654 2.663853 0.000000 0.000000 0.000000 0.000000 0.000000 0.000000 -0.723576 0.458245 28.880283 0.231266 -0.935429 0.136597 -0.000000 0.000000 0.000000 0.000000 0.000000 0.000000 0.785200 -0.328601 27.744986 -1.927234 0.930207 0.439630 1.678792 -2.930523 1.389056 0.000000 0.000000 0.000000
